<?xml version="1.0" encoding="utf-8" standalone="no"?>
<!DOCTYPE svg PUBLIC "-//W3C//DTD SVG 1.1//EN"
  "http://www.w3.org/Graphics/SVG/1.1/DTD/svg11.dtd">
<svg xmlns:xlink="http://www.w3.org/1999/xlink" width="460.8pt" height="345.6pt" viewBox="0 0 460.8 345.6" xmlns="http://www.w3.org/2000/svg" version="1.1">
 <metadata>
  <rdf:RDF xmlns:dc="http://purl.org/dc/elements/1.1/" xmlns:cc="http://creativecommons.org/ns#" xmlns:rdf="http://www.w3.org/1999/02/22-rdf-syntax-ns#">
   <cc:Work>
    <dc:type rdf:resource="http://purl.org/dc/dcmitype/StillImage"/>
    <dc:date>2025-01-15T15:35:14.495534</dc:date>
    <dc:format>image/svg+xml</dc:format>
    <dc:creator>
     <cc:Agent>
      <dc:title>Matplotlib v3.10.0, https://matplotlib.org/</dc:title>
     </cc:Agent>
    </dc:creator>
   </cc:Work>
  </rdf:RDF>
 </metadata>
 <defs>
  <style type="text/css">*{stroke-linejoin: round; stroke-linecap: butt}</style>
 </defs>
 <g id="figure_1">
  <g id="patch_1">
   <path d="M 0 345.6 
L 460.8 345.6 
L 460.8 0 
L 0 0 
z
" style="fill: #ffffff"/>
  </g>
  <g id="axes_1">
   <g id="patch_2">
    <path d="M 57.6 307.584 
L 414.72 307.584 
L 414.72 41.472 
L 57.6 41.472 
z
" style="fill: #ffffff"/>
   </g>
   <g id="patch_3">
    <path d="M 210.651429 208.7424 
C 216.06339 208.7424 221.254421 207.140158 225.081256 204.288549 
C 228.908091 201.436939 231.058286 197.568784 231.058286 193.536 
C 231.058286 189.503216 228.908091 185.635061 225.081256 182.783451 
C 221.254421 179.931842 216.06339 178.3296 210.651429 178.3296 
C 205.239467 178.3296 200.048436 179.931842 196.221602 182.783451 
C 192.394767 185.635061 190.244571 189.503216 190.244571 193.536 
C 190.244571 197.568784 192.394767 201.436939 196.221602 204.288549 
C 200.048436 207.140158 205.239467 208.7424 210.651429 208.7424 
L 210.651429 208.7424 
z
" clip-path="url(#p7088e217dd)" style="fill: none; stroke: #0000ff; stroke-linejoin: miter"/>
   </g>
   <g id="patch_4">
    <path d="M 108.617143 208.7424 
C 114.029105 208.7424 119.220135 207.140158 123.04697 204.288549 
C 126.873805 201.436939 129.024 197.568784 129.024 193.536 
C 129.024 189.503216 126.873805 185.635061 123.04697 182.783451 
C 119.220135 179.931842 114.029105 178.3296 108.617143 178.3296 
C 103.205181 178.3296 98.014151 179.931842 94.187316 182.783451 
C 90.360481 185.635061 88.210286 189.503216 88.210286 193.536 
C 88.210286 197.568784 90.360481 201.436939 94.187316 204.288549 
C 98.014151 207.140158 103.205181 208.7424 108.617143 208.7424 
L 108.617143 208.7424 
z
" clip-path="url(#p7088e217dd)" style="fill: none; stroke: #0000ff; stroke-linejoin: miter"/>
   </g>
   <g id="patch_5">
    <path d="M 108.617143 132.7104 
C 114.029105 132.7104 119.220135 131.108158 123.04697 128.256549 
C 126.873805 125.404939 129.024 121.536784 129.024 117.504 
C 129.024 113.471216 126.873805 109.603061 123.04697 106.751451 
C 119.220135 103.899842 114.029105 102.2976 108.617143 102.2976 
C 103.205181 102.2976 98.014151 103.899842 94.187316 106.751451 
C 90.360481 109.603061 88.210286 113.471216 88.210286 117.504 
C 88.210286 121.536784 90.360481 125.404939 94.187316 128.256549 
C 98.014151 131.108158 103.205181 132.7104 108.617143 132.7104 
L 108.617143 132.7104 
z
" clip-path="url(#p7088e217dd)" style="fill: none; stroke: #0000ff; stroke-linejoin: miter"/>
   </g>
   <g id="patch_6">
    <path d="M 210.651429 132.7104 
C 216.06339 132.7104 221.254421 131.108158 225.081256 128.256549 
C 228.908091 125.404939 231.058286 121.536784 231.058286 117.504 
C 231.058286 113.471216 228.908091 109.603061 225.081256 106.751451 
C 221.254421 103.899842 216.06339 102.2976 210.651429 102.2976 
C 205.239467 102.2976 200.048436 103.899842 196.221602 106.751451 
C 192.394767 109.603061 190.244571 113.471216 190.244571 117.504 
C 190.244571 121.536784 192.394767 125.404939 196.221602 128.256549 
C 200.048436 131.108158 205.239467 132.7104 210.651429 132.7104 
L 210.651429 132.7104 
z
" clip-path="url(#p7088e217dd)" style="fill: none; stroke: #0000ff; stroke-linejoin: miter"/>
   </g>
   <g id="patch_7">
    <path d="M 159.634286 109.9008 
C 162.340267 109.9008 164.935782 109.099679 166.849199 107.673874 
C 168.762617 106.24807 169.837714 104.313992 169.837714 102.2976 
C 169.837714 100.281208 168.762617 98.34713 166.849199 96.921326 
C 164.935782 95.495521 162.340267 94.6944 159.634286 94.6944 
C 156.928305 94.6944 154.33279 95.495521 152.419372 96.921326 
C 150.505955 98.34713 149.430857 100.281208 149.430857 102.2976 
C 149.430857 104.313992 150.505955 106.24807 152.419372 107.673874 
C 154.33279 109.099679 156.928305 109.9008 159.634286 109.9008 
L 159.634286 109.9008 
z
" clip-path="url(#p7088e217dd)" style="fill: none; stroke: #ff0000; stroke-linejoin: miter"/>
   </g>
   <g id="patch_8">
    <path d="M 210.651429 178.3296 
C 213.357409 178.3296 215.952925 177.528479 217.866342 176.102674 
C 219.77976 174.67687 220.854857 172.742792 220.854857 170.7264 
C 220.854857 168.710008 219.77976 166.77593 217.866342 165.350126 
C 215.952925 163.924321 213.357409 163.1232 210.651429 163.1232 
C 207.945448 163.1232 205.349932 163.924321 203.436515 165.350126 
C 201.523098 166.77593 200.448 168.710008 200.448 170.7264 
C 200.448 172.742792 201.523098 174.67687 203.436515 176.102674 
C 205.349932 177.528479 207.945448 178.3296 210.651429 178.3296 
L 210.651429 178.3296 
z
" clip-path="url(#p7088e217dd)" style="fill: none; stroke: #ff0000; stroke-linejoin: miter"/>
   </g>
   <g id="patch_9">
    <path d="M 159.634286 246.7584 
C 165.046247 246.7584 170.237278 245.156158 174.064113 242.304549 
C 177.890948 239.452939 180.041143 235.584784 180.041143 231.552 
C 180.041143 227.519216 177.890948 223.651061 174.064113 220.799451 
C 170.237278 217.947842 165.046247 216.3456 159.634286 216.3456 
C 154.222324 216.3456 149.031294 217.947842 145.204459 220.799451 
C 141.377624 223.651061 139.227429 227.519216 139.227429 231.552 
C 139.227429 235.584784 141.377624 239.452939 145.204459 242.304549 
C 149.031294 245.156158 154.222324 246.7584 159.634286 246.7584 
L 159.634286 246.7584 
z
" clip-path="url(#p7088e217dd)" style="fill: none; stroke: #ff0000; stroke-linejoin: miter"/>
   </g>
   <g id="matplotlib.axis_1">
    <g id="xtick_1">
     <g id="line2d_1">
      <defs>
       <path id="m9a4b219599" d="M 0 0 
L 0 3.5 
" style="stroke: #000000; stroke-width: 0.8"/>
      </defs>
      <g>
       <use xlink:href="#m9a4b219599" x="57.6" y="307.584" style="stroke: #000000; stroke-width: 0.8"/>
      </g>
     </g>
     <g id="text_1">
      <!-- −5 -->
      <g transform="translate(50.228906 322.182437) scale(0.1 -0.1)">
       <defs>
        <path id="DejaVuSans-2212" d="M 678 2272 
L 4684 2272 
L 4684 1741 
L 678 1741 
L 678 2272 
z
" transform="scale(0.015625)"/>
        <path id="DejaVuSans-35" d="M 691 4666 
L 3169 4666 
L 3169 4134 
L 1269 4134 
L 1269 2991 
Q 1406 3038 1543 3061 
Q 1681 3084 1819 3084 
Q 2600 3084 3056 2656 
Q 3513 2228 3513 1497 
Q 3513 744 3044 326 
Q 2575 -91 1722 -91 
Q 1428 -91 1123 -41 
Q 819 9 494 109 
L 494 744 
Q 775 591 1075 516 
Q 1375 441 1709 441 
Q 2250 441 2565 725 
Q 2881 1009 2881 1497 
Q 2881 1984 2565 2268 
Q 2250 2553 1709 2553 
Q 1456 2553 1204 2497 
Q 953 2441 691 2322 
L 691 4666 
z
" transform="scale(0.015625)"/>
       </defs>
       <use xlink:href="#DejaVuSans-2212"/>
       <use xlink:href="#DejaVuSans-35" transform="translate(83.789062 0)"/>
      </g>
     </g>
    </g>
    <g id="xtick_2">
     <g id="line2d_2">
      <g>
       <use xlink:href="#m9a4b219599" x="108.617143" y="307.584" style="stroke: #000000; stroke-width: 0.8"/>
      </g>
     </g>
     <g id="text_2">
      <!-- 0 -->
      <g transform="translate(105.435893 322.182437) scale(0.1 -0.1)">
       <defs>
        <path id="DejaVuSans-30" d="M 2034 4250 
Q 1547 4250 1301 3770 
Q 1056 3291 1056 2328 
Q 1056 1369 1301 889 
Q 1547 409 2034 409 
Q 2525 409 2770 889 
Q 3016 1369 3016 2328 
Q 3016 3291 2770 3770 
Q 2525 4250 2034 4250 
z
M 2034 4750 
Q 2819 4750 3233 4129 
Q 3647 3509 3647 2328 
Q 3647 1150 3233 529 
Q 2819 -91 2034 -91 
Q 1250 -91 836 529 
Q 422 1150 422 2328 
Q 422 3509 836 4129 
Q 1250 4750 2034 4750 
z
" transform="scale(0.015625)"/>
       </defs>
       <use xlink:href="#DejaVuSans-30"/>
      </g>
     </g>
    </g>
    <g id="xtick_3">
     <g id="line2d_3">
      <g>
       <use xlink:href="#m9a4b219599" x="159.634286" y="307.584" style="stroke: #000000; stroke-width: 0.8"/>
      </g>
     </g>
     <g id="text_3">
      <!-- 5 -->
      <g transform="translate(156.453036 322.182437) scale(0.1 -0.1)">
       <use xlink:href="#DejaVuSans-35"/>
      </g>
     </g>
    </g>
    <g id="xtick_4">
     <g id="line2d_4">
      <g>
       <use xlink:href="#m9a4b219599" x="210.651429" y="307.584" style="stroke: #000000; stroke-width: 0.8"/>
      </g>
     </g>
     <g id="text_4">
      <!-- 10 -->
      <g transform="translate(204.288929 322.182437) scale(0.1 -0.1)">
       <defs>
        <path id="DejaVuSans-31" d="M 794 531 
L 1825 531 
L 1825 4091 
L 703 3866 
L 703 4441 
L 1819 4666 
L 2450 4666 
L 2450 531 
L 3481 531 
L 3481 0 
L 794 0 
L 794 531 
z
" transform="scale(0.015625)"/>
       </defs>
       <use xlink:href="#DejaVuSans-31"/>
       <use xlink:href="#DejaVuSans-30" transform="translate(63.623047 0)"/>
      </g>
     </g>
    </g>
    <g id="xtick_5">
     <g id="line2d_5">
      <g>
       <use xlink:href="#m9a4b219599" x="261.668571" y="307.584" style="stroke: #000000; stroke-width: 0.8"/>
      </g>
     </g>
     <g id="text_5">
      <!-- 15 -->
      <g transform="translate(255.306071 322.182437) scale(0.1 -0.1)">
       <use xlink:href="#DejaVuSans-31"/>
       <use xlink:href="#DejaVuSans-35" transform="translate(63.623047 0)"/>
      </g>
     </g>
    </g>
    <g id="xtick_6">
     <g id="line2d_6">
      <g>
       <use xlink:href="#m9a4b219599" x="312.685714" y="307.584" style="stroke: #000000; stroke-width: 0.8"/>
      </g>
     </g>
     <g id="text_6">
      <!-- 20 -->
      <g transform="translate(306.323214 322.182437) scale(0.1 -0.1)">
       <defs>
        <path id="DejaVuSans-32" d="M 1228 531 
L 3431 531 
L 3431 0 
L 469 0 
L 469 531 
Q 828 903 1448 1529 
Q 2069 2156 2228 2338 
Q 2531 2678 2651 2914 
Q 2772 3150 2772 3378 
Q 2772 3750 2511 3984 
Q 2250 4219 1831 4219 
Q 1534 4219 1204 4116 
Q 875 4013 500 3803 
L 500 4441 
Q 881 4594 1212 4672 
Q 1544 4750 1819 4750 
Q 2544 4750 2975 4387 
Q 3406 4025 3406 3419 
Q 3406 3131 3298 2873 
Q 3191 2616 2906 2266 
Q 2828 2175 2409 1742 
Q 1991 1309 1228 531 
z
" transform="scale(0.015625)"/>
       </defs>
       <use xlink:href="#DejaVuSans-32"/>
       <use xlink:href="#DejaVuSans-30" transform="translate(63.623047 0)"/>
      </g>
     </g>
    </g>
    <g id="xtick_7">
     <g id="line2d_7">
      <g>
       <use xlink:href="#m9a4b219599" x="363.702857" y="307.584" style="stroke: #000000; stroke-width: 0.8"/>
      </g>
     </g>
     <g id="text_7">
      <!-- 25 -->
      <g transform="translate(357.340357 322.182437) scale(0.1 -0.1)">
       <use xlink:href="#DejaVuSans-32"/>
       <use xlink:href="#DejaVuSans-35" transform="translate(63.623047 0)"/>
      </g>
     </g>
    </g>
    <g id="xtick_8">
     <g id="line2d_8">
      <g>
       <use xlink:href="#m9a4b219599" x="414.72" y="307.584" style="stroke: #000000; stroke-width: 0.8"/>
      </g>
     </g>
     <g id="text_8">
      <!-- 30 -->
      <g transform="translate(408.3575 322.182437) scale(0.1 -0.1)">
       <defs>
        <path id="DejaVuSans-33" d="M 2597 2516 
Q 3050 2419 3304 2112 
Q 3559 1806 3559 1356 
Q 3559 666 3084 287 
Q 2609 -91 1734 -91 
Q 1441 -91 1130 -33 
Q 819 25 488 141 
L 488 750 
Q 750 597 1062 519 
Q 1375 441 1716 441 
Q 2309 441 2620 675 
Q 2931 909 2931 1356 
Q 2931 1769 2642 2001 
Q 2353 2234 1838 2234 
L 1294 2234 
L 1294 2753 
L 1863 2753 
Q 2328 2753 2575 2939 
Q 2822 3125 2822 3475 
Q 2822 3834 2567 4026 
Q 2313 4219 1838 4219 
Q 1578 4219 1281 4162 
Q 984 4106 628 3988 
L 628 4550 
Q 988 4650 1302 4700 
Q 1616 4750 1894 4750 
Q 2613 4750 3031 4423 
Q 3450 4097 3450 3541 
Q 3450 3153 3228 2886 
Q 3006 2619 2597 2516 
z
" transform="scale(0.015625)"/>
       </defs>
       <use xlink:href="#DejaVuSans-33"/>
       <use xlink:href="#DejaVuSans-30" transform="translate(63.623047 0)"/>
      </g>
     </g>
    </g>
    <g id="text_9">
     <!-- X -->
     <g transform="translate(232.735 335.860562) scale(0.1 -0.1)">
      <defs>
       <path id="DejaVuSans-58" d="M 403 4666 
L 1081 4666 
L 2241 2931 
L 3406 4666 
L 4084 4666 
L 2584 2425 
L 4184 0 
L 3506 0 
L 2194 1984 
L 872 0 
L 191 0 
L 1856 2491 
L 403 4666 
z
" transform="scale(0.015625)"/>
      </defs>
      <use xlink:href="#DejaVuSans-58"/>
     </g>
    </g>
   </g>
   <g id="matplotlib.axis_2">
    <g id="ytick_1">
     <g id="line2d_9">
      <defs>
       <path id="ma3727ecd14" d="M 0 0 
L -3.5 0 
" style="stroke: #000000; stroke-width: 0.8"/>
      </defs>
      <g>
       <use xlink:href="#ma3727ecd14" x="57.6" y="307.584" style="stroke: #000000; stroke-width: 0.8"/>
      </g>
     </g>
     <g id="text_10">
      <!-- −5 -->
      <g transform="translate(35.857813 311.383219) scale(0.1 -0.1)">
       <use xlink:href="#DejaVuSans-2212"/>
       <use xlink:href="#DejaVuSans-35" transform="translate(83.789062 0)"/>
      </g>
     </g>
    </g>
    <g id="ytick_2">
     <g id="line2d_10">
      <g>
       <use xlink:href="#ma3727ecd14" x="57.6" y="269.568" style="stroke: #000000; stroke-width: 0.8"/>
      </g>
     </g>
     <g id="text_11">
      <!-- 0 -->
      <g transform="translate(44.2375 273.367219) scale(0.1 -0.1)">
       <use xlink:href="#DejaVuSans-30"/>
      </g>
     </g>
    </g>
    <g id="ytick_3">
     <g id="line2d_11">
      <g>
       <use xlink:href="#ma3727ecd14" x="57.6" y="231.552" style="stroke: #000000; stroke-width: 0.8"/>
      </g>
     </g>
     <g id="text_12">
      <!-- 5 -->
      <g transform="translate(44.2375 235.351219) scale(0.1 -0.1)">
       <use xlink:href="#DejaVuSans-35"/>
      </g>
     </g>
    </g>
    <g id="ytick_4">
     <g id="line2d_12">
      <g>
       <use xlink:href="#ma3727ecd14" x="57.6" y="193.536" style="stroke: #000000; stroke-width: 0.8"/>
      </g>
     </g>
     <g id="text_13">
      <!-- 10 -->
      <g transform="translate(37.875 197.335219) scale(0.1 -0.1)">
       <use xlink:href="#DejaVuSans-31"/>
       <use xlink:href="#DejaVuSans-30" transform="translate(63.623047 0)"/>
      </g>
     </g>
    </g>
    <g id="ytick_5">
     <g id="line2d_13">
      <g>
       <use xlink:href="#ma3727ecd14" x="57.6" y="155.52" style="stroke: #000000; stroke-width: 0.8"/>
      </g>
     </g>
     <g id="text_14">
      <!-- 15 -->
      <g transform="translate(37.875 159.319219) scale(0.1 -0.1)">
       <use xlink:href="#DejaVuSans-31"/>
       <use xlink:href="#DejaVuSans-35" transform="translate(63.623047 0)"/>
      </g>
     </g>
    </g>
    <g id="ytick_6">
     <g id="line2d_14">
      <g>
       <use xlink:href="#ma3727ecd14" x="57.6" y="117.504" style="stroke: #000000; stroke-width: 0.8"/>
      </g>
     </g>
     <g id="text_15">
      <!-- 20 -->
      <g transform="translate(37.875 121.303219) scale(0.1 -0.1)">
       <use xlink:href="#DejaVuSans-32"/>
       <use xlink:href="#DejaVuSans-30" transform="translate(63.623047 0)"/>
      </g>
     </g>
    </g>
    <g id="ytick_7">
     <g id="line2d_15">
      <g>
       <use xlink:href="#ma3727ecd14" x="57.6" y="79.488" style="stroke: #000000; stroke-width: 0.8"/>
      </g>
     </g>
     <g id="text_16">
      <!-- 25 -->
      <g transform="translate(37.875 83.287219) scale(0.1 -0.1)">
       <use xlink:href="#DejaVuSans-32"/>
       <use xlink:href="#DejaVuSans-35" transform="translate(63.623047 0)"/>
      </g>
     </g>
    </g>
    <g id="ytick_8">
     <g id="line2d_16">
      <g>
       <use xlink:href="#ma3727ecd14" x="57.6" y="41.472" style="stroke: #000000; stroke-width: 0.8"/>
      </g>
     </g>
     <g id="text_17">
      <!-- 30 -->
      <g transform="translate(37.875 45.271219) scale(0.1 -0.1)">
       <use xlink:href="#DejaVuSans-33"/>
       <use xlink:href="#DejaVuSans-30" transform="translate(63.623047 0)"/>
      </g>
     </g>
    </g>
    <g id="text_18">
     <!-- Y -->
     <g transform="translate(29.778125 177.581906) rotate(-90) scale(0.1 -0.1)">
      <defs>
       <path id="DejaVuSans-59" d="M -13 4666 
L 666 4666 
L 1959 2747 
L 3244 4666 
L 3922 4666 
L 2272 2222 
L 2272 0 
L 1638 0 
L 1638 2222 
L -13 4666 
z
" transform="scale(0.015625)"/>
      </defs>
      <use xlink:href="#DejaVuSans-59"/>
     </g>
    </g>
   </g>
   <g id="line2d_17">
    <path d="M 108.617143 269.568 
L 116.082974 269.476097 
L 124.346873 269.147642 
L 132.092426 268.619426 
L 139.375521 267.925393 
L 147.60077 266.907655 
L 154.368712 265.880486 
L 161.629875 264.583498 
L 169.360897 262.974734 
L 177.532875 261.010114 
L 186.110631 258.643838 
L 190.312883 257.291762 
L 194.425075 255.608669 
L 198.393585 253.588541 
L 202.161132 251.230131 
L 205.667433 248.537605 
L 207.303157 247.068985 
L 208.850029 245.521164 
L 210.300067 243.896451 
L 211.645287 242.197602 
L 212.877746 240.427826 
L 213.989582 238.590805 
L 214.973067 236.690694 
L 215.82065 234.732136 
L 216.525011 232.720264 
L 217.079112 230.660702 
L 217.476257 228.559563 
L 217.710143 226.42345 
L 217.774923 224.259443 
L 217.665265 222.075091 
L 217.376412 219.878398 
L 216.904241 217.6778 
L 216.245329 215.482147 
L 215.397008 213.300673 
L 214.357431 211.142967 
L 213.125622 209.018931 
L 211.70154 206.938748 
L 210.086131 204.912829 
L 208.281375 202.951767 
L 206.290335 201.066282 
L 204.117201 199.26716 
L 201.767326 197.565192 
L 199.247255 195.971106 
L 196.564753 194.495491 
L 193.728822 193.148729 
L 190.749711 191.940909 
L 187.638914 190.881748 
L 184.409167 189.980509 
L 181.074427 189.245908 
L 177.649844 188.686034 
L 174.151726 188.308253 
L 170.597481 188.119124 
L 167.005561 188.124307 
L 163.395388 188.32848 
L 159.787261 188.735249 
L 156.202266 189.347073 
L 151.484007 190.437445 
L 146.705091 191.152944 
L 141.918893 191.500706 
L 137.175537 191.491792 
L 132.521479 191.140724 
L 127.99918 190.465016 
L 123.646874 189.484703 
L 119.49842 188.221872 
L 115.583225 186.700215 
L 111.926247 184.944601 
L 108.548054 182.980665 
L 105.464941 180.834436 
L 102.689091 178.531986 
L 100.228783 176.099123 
L 98.088625 173.561106 
L 96.269816 170.942402 
L 94.770425 168.266479 
L 93.585686 165.555627 
L 92.708296 162.830813 
L 92.128715 160.111571 
L 91.835467 157.415916 
L 91.81543 154.76029 
L 92.054123 152.159524 
L 92.535968 149.626837 
L 93.244554 147.173837 
L 94.162871 144.810557 
L 95.273529 142.545493 
L 96.558964 140.385665 
L 98.001622 138.336678 
L 99.584115 136.402802 
L 101.289376 134.587053 
L 103.100777 132.891281 
L 105.002238 131.316258 
L 106.978322 129.861775 
L 109.014301 128.526727 
L 111.096221 127.309214 
L 115.346169 125.215728 
L 119.633298 123.553479 
L 123.876618 122.287296 
L 128.008839 121.377036 
L 131.975717 120.779641 
L 135.735051 120.450875 
L 139.25545 120.346736 
L 161.190685 120.697049 
L 182.845398 121.25703 
L 203.845669 122.003794 
L 225.059286 122.962302 
L 225.059286 122.962302 
" clip-path="url(#p7088e217dd)" style="fill: none; stroke-dasharray: 5.55,2.4; stroke-dashoffset: 0; stroke: #f28522; stroke-width: 1.5"/>
   </g>
   <g id="line2d_18">
    <path d="M 159.634286 269.568 
L 163.30853 269.478105 
L 166.825124 269.210684 
L 170.447275 268.742656 
L 174.738511 267.923265 
L 178.348032 266.996991 
L 182.236655 265.734786 
L 184.950423 264.675152 
L 187.731767 263.419092 
L 190.550366 261.948608 
L 193.371119 260.247 
L 196.153956 258.299501 
L 198.853761 256.094002 
L 201.420438 253.621831 
L 203.799149 250.878611 
L 205.930754 247.865147 
L 206.884396 246.25897 
L 210.498163 239.144416 
L 213.773927 232.054295 
L 216.721131 224.998192 
L 219.349533 217.98516 
L 221.669162 211.023724 
L 223.690278 204.121893 
L 225.423336 197.287164 
L 226.878944 190.526535 
L 228.067835 183.846516 
L 229.000828 177.253136 
L 229.688803 170.751963 
L 230.142663 164.348111 
L 230.373316 158.046256 
L 230.391643 151.850651 
L 230.208476 145.765139 
L 229.834575 139.793172 
L 229.280609 133.937821 
L 228.557135 128.201794 
L 227.674581 122.587454 
L 226.64323 117.096832 
L 225.473206 111.731644 
L 224.17446 106.493304 
L 222.006299 98.876042 
L 219.602573 91.549383 
L 218.954847 89.733897 
L 218.18055 87.908116 
L 217.274859 86.077554 
L 216.233299 84.248148 
L 215.051793 82.426259 
L 213.726724 80.618668 
L 212.25499 78.832562 
L 210.634073 77.075529 
L 208.862093 75.355538 
L 206.93788 73.680918 
L 204.861032 72.06033 
L 202.631986 70.50274 
L 200.252075 69.017381 
L 197.723596 67.613707 
L 195.049865 66.301352 
L 192.235282 65.090069 
L 189.285375 63.989678 
L 186.20686 63.009992 
L 183.007676 62.160753 
L 179.697028 61.451548 
L 176.285412 60.891729 
L 172.784641 60.490324 
L 169.207853 60.255943 
L 165.569514 60.196677 
L 161.885402 60.32 
L 158.172591 60.632655 
L 154.449404 61.140555 
L 150.735365 61.848663 
L 147.05113 62.760885 
L 143.418399 63.879959 
L 139.859814 65.207342 
L 136.398836 66.743104 
L 133.059607 68.485826 
L 129.866794 70.432504 
L 126.845405 72.578456 
L 124.0206 74.917244 
L 121.417472 77.440605 
L 119.060821 80.138395 
L 116.974902 82.998545 
L 115.183164 86.007041 
L 113.707976 89.147912 
L 112.570337 92.403248 
L 111.789582 95.753236 
L 111.38308 99.176219 
L 111.365929 102.648784 
L 111.750651 106.14587 
L 112.546894 109.640909 
L 113.761136 113.105998 
L 115.396416 116.512088 
L 117.452065 119.829219 
L 119.469203 122.521435 
L 121.26982 125.257041 
L 122.855838 128.025841 
L 124.229968 130.818037 
L 125.395649 133.624246 
L 126.356988 136.435525 
L 127.118697 139.243386 
L 127.686035 142.039809 
L 128.064748 144.817249 
L 128.261012 147.568648 
L 128.281377 150.28743 
L 128.132716 152.967509 
L 127.822169 155.603279 
L 127.3571 158.189614 
L 126.745044 160.721862 
L 125.568155 164.409771 
L 124.104019 167.954403 
L 122.378998 171.345693 
L 120.419349 174.575656 
L 118.250993 177.638264 
L 115.899314 180.529319 
L 114.241898 182.360078 
L 114.241898 182.360078 
" clip-path="url(#p7088e217dd)" style="fill: none; stroke-dasharray: 5.55,2.4; stroke-dashoffset: 0; stroke: #009ade; stroke-width: 1.5"/>
   </g>
   <g id="patch_10">
    <path d="M 57.6 307.584 
L 57.6 41.472 
" style="fill: none; stroke: #000000; stroke-width: 0.8; stroke-linejoin: miter; stroke-linecap: square"/>
   </g>
   <g id="patch_11">
    <path d="M 414.72 307.584 
L 414.72 41.472 
" style="fill: none; stroke: #000000; stroke-width: 0.8; stroke-linejoin: miter; stroke-linecap: square"/>
   </g>
   <g id="patch_12">
    <path d="M 57.6 307.584 
L 414.72 307.584 
" style="fill: none; stroke: #000000; stroke-width: 0.8; stroke-linejoin: miter; stroke-linecap: square"/>
   </g>
   <g id="patch_13">
    <path d="M 57.6 41.472 
L 414.72 41.472 
" style="fill: none; stroke: #000000; stroke-width: 0.8; stroke-linejoin: miter; stroke-linecap: square"/>
   </g>
   <g id="legend_1">
    <g id="patch_14">
     <path d="M 312.030937 108.1845 
L 407.72 108.1845 
Q 409.72 108.1845 409.72 106.1845 
L 409.72 48.472 
Q 409.72 46.472 407.72 46.472 
L 312.030937 46.472 
Q 310.030937 46.472 310.030937 48.472 
L 310.030937 106.1845 
Q 310.030937 108.1845 312.030937 108.1845 
z
" style="fill: #ffffff; opacity: 0.8; stroke: #cccccc; stroke-linejoin: miter"/>
    </g>
    <g id="line2d_19">
     <path d="M 314.030937 54.570438 
L 324.030937 54.570438 
L 334.030937 54.570438 
" style="fill: none; stroke-dasharray: 5.55,2.4; stroke-dashoffset: 0; stroke: #f28522; stroke-width: 1.5"/>
    </g>
    <g id="text_19">
     <!-- Robot 0 Path -->
     <g transform="translate(342.030937 58.070438) scale(0.1 -0.1)">
      <defs>
       <path id="DejaVuSans-52" d="M 2841 2188 
Q 3044 2119 3236 1894 
Q 3428 1669 3622 1275 
L 4263 0 
L 3584 0 
L 2988 1197 
Q 2756 1666 2539 1819 
Q 2322 1972 1947 1972 
L 1259 1972 
L 1259 0 
L 628 0 
L 628 4666 
L 2053 4666 
Q 2853 4666 3247 4331 
Q 3641 3997 3641 3322 
Q 3641 2881 3436 2590 
Q 3231 2300 2841 2188 
z
M 1259 4147 
L 1259 2491 
L 2053 2491 
Q 2509 2491 2742 2702 
Q 2975 2913 2975 3322 
Q 2975 3731 2742 3939 
Q 2509 4147 2053 4147 
L 1259 4147 
z
" transform="scale(0.015625)"/>
       <path id="DejaVuSans-6f" d="M 1959 3097 
Q 1497 3097 1228 2736 
Q 959 2375 959 1747 
Q 959 1119 1226 758 
Q 1494 397 1959 397 
Q 2419 397 2687 759 
Q 2956 1122 2956 1747 
Q 2956 2369 2687 2733 
Q 2419 3097 1959 3097 
z
M 1959 3584 
Q 2709 3584 3137 3096 
Q 3566 2609 3566 1747 
Q 3566 888 3137 398 
Q 2709 -91 1959 -91 
Q 1206 -91 779 398 
Q 353 888 353 1747 
Q 353 2609 779 3096 
Q 1206 3584 1959 3584 
z
" transform="scale(0.015625)"/>
       <path id="DejaVuSans-62" d="M 3116 1747 
Q 3116 2381 2855 2742 
Q 2594 3103 2138 3103 
Q 1681 3103 1420 2742 
Q 1159 2381 1159 1747 
Q 1159 1113 1420 752 
Q 1681 391 2138 391 
Q 2594 391 2855 752 
Q 3116 1113 3116 1747 
z
M 1159 2969 
Q 1341 3281 1617 3432 
Q 1894 3584 2278 3584 
Q 2916 3584 3314 3078 
Q 3713 2572 3713 1747 
Q 3713 922 3314 415 
Q 2916 -91 2278 -91 
Q 1894 -91 1617 61 
Q 1341 213 1159 525 
L 1159 0 
L 581 0 
L 581 4863 
L 1159 4863 
L 1159 2969 
z
" transform="scale(0.015625)"/>
       <path id="DejaVuSans-74" d="M 1172 4494 
L 1172 3500 
L 2356 3500 
L 2356 3053 
L 1172 3053 
L 1172 1153 
Q 1172 725 1289 603 
Q 1406 481 1766 481 
L 2356 481 
L 2356 0 
L 1766 0 
Q 1100 0 847 248 
Q 594 497 594 1153 
L 594 3053 
L 172 3053 
L 172 3500 
L 594 3500 
L 594 4494 
L 1172 4494 
z
" transform="scale(0.015625)"/>
       <path id="DejaVuSans-20" transform="scale(0.015625)"/>
       <path id="DejaVuSans-50" d="M 1259 4147 
L 1259 2394 
L 2053 2394 
Q 2494 2394 2734 2622 
Q 2975 2850 2975 3272 
Q 2975 3691 2734 3919 
Q 2494 4147 2053 4147 
L 1259 4147 
z
M 628 4666 
L 2053 4666 
Q 2838 4666 3239 4311 
Q 3641 3956 3641 3272 
Q 3641 2581 3239 2228 
Q 2838 1875 2053 1875 
L 1259 1875 
L 1259 0 
L 628 0 
L 628 4666 
z
" transform="scale(0.015625)"/>
       <path id="DejaVuSans-61" d="M 2194 1759 
Q 1497 1759 1228 1600 
Q 959 1441 959 1056 
Q 959 750 1161 570 
Q 1363 391 1709 391 
Q 2188 391 2477 730 
Q 2766 1069 2766 1631 
L 2766 1759 
L 2194 1759 
z
M 3341 1997 
L 3341 0 
L 2766 0 
L 2766 531 
Q 2569 213 2275 61 
Q 1981 -91 1556 -91 
Q 1019 -91 701 211 
Q 384 513 384 1019 
Q 384 1609 779 1909 
Q 1175 2209 1959 2209 
L 2766 2209 
L 2766 2266 
Q 2766 2663 2505 2880 
Q 2244 3097 1772 3097 
Q 1472 3097 1187 3025 
Q 903 2953 641 2809 
L 641 3341 
Q 956 3463 1253 3523 
Q 1550 3584 1831 3584 
Q 2591 3584 2966 3190 
Q 3341 2797 3341 1997 
z
" transform="scale(0.015625)"/>
       <path id="DejaVuSans-68" d="M 3513 2113 
L 3513 0 
L 2938 0 
L 2938 2094 
Q 2938 2591 2744 2837 
Q 2550 3084 2163 3084 
Q 1697 3084 1428 2787 
Q 1159 2491 1159 1978 
L 1159 0 
L 581 0 
L 581 4863 
L 1159 4863 
L 1159 2956 
Q 1366 3272 1645 3428 
Q 1925 3584 2291 3584 
Q 2894 3584 3203 3211 
Q 3513 2838 3513 2113 
z
" transform="scale(0.015625)"/>
      </defs>
      <use xlink:href="#DejaVuSans-52"/>
      <use xlink:href="#DejaVuSans-6f" transform="translate(64.982422 0)"/>
      <use xlink:href="#DejaVuSans-62" transform="translate(126.164062 0)"/>
      <use xlink:href="#DejaVuSans-6f" transform="translate(189.640625 0)"/>
      <use xlink:href="#DejaVuSans-74" transform="translate(250.822266 0)"/>
      <use xlink:href="#DejaVuSans-20" transform="translate(290.03125 0)"/>
      <use xlink:href="#DejaVuSans-30" transform="translate(321.818359 0)"/>
      <use xlink:href="#DejaVuSans-20" transform="translate(385.441406 0)"/>
      <use xlink:href="#DejaVuSans-50" transform="translate(417.228516 0)"/>
      <use xlink:href="#DejaVuSans-61" transform="translate(473.03125 0)"/>
      <use xlink:href="#DejaVuSans-74" transform="translate(534.310547 0)"/>
      <use xlink:href="#DejaVuSans-68" transform="translate(573.519531 0)"/>
     </g>
    </g>
    <g id="line2d_20">
     <path d="M 314.030937 69.248563 
L 324.030937 69.248563 
L 334.030937 69.248563 
" style="fill: none; stroke-dasharray: 5.55,2.4; stroke-dashoffset: 0; stroke: #009ade; stroke-width: 1.5"/>
    </g>
    <g id="text_20">
     <!-- Robot 1 Path -->
     <g transform="translate(342.030937 72.748563) scale(0.1 -0.1)">
      <use xlink:href="#DejaVuSans-52"/>
      <use xlink:href="#DejaVuSans-6f" transform="translate(64.982422 0)"/>
      <use xlink:href="#DejaVuSans-62" transform="translate(126.164062 0)"/>
      <use xlink:href="#DejaVuSans-6f" transform="translate(189.640625 0)"/>
      <use xlink:href="#DejaVuSans-74" transform="translate(250.822266 0)"/>
      <use xlink:href="#DejaVuSans-20" transform="translate(290.03125 0)"/>
      <use xlink:href="#DejaVuSans-31" transform="translate(321.818359 0)"/>
      <use xlink:href="#DejaVuSans-20" transform="translate(385.441406 0)"/>
      <use xlink:href="#DejaVuSans-50" transform="translate(417.228516 0)"/>
      <use xlink:href="#DejaVuSans-61" transform="translate(473.03125 0)"/>
      <use xlink:href="#DejaVuSans-74" transform="translate(534.310547 0)"/>
      <use xlink:href="#DejaVuSans-68" transform="translate(573.519531 0)"/>
     </g>
    </g>
    <g id="line2d_21">
     <defs>
      <path id="mc82aaef195" d="M 0 5 
C 1.326016 5 2.597899 4.473168 3.535534 3.535534 
C 4.473168 2.597899 5 1.326016 5 0 
C 5 -1.326016 4.473168 -2.597899 3.535534 -3.535534 
C 2.597899 -4.473168 1.326016 -5 0 -5 
C -1.326016 -5 -2.597899 -4.473168 -3.535534 -3.535534 
C -4.473168 -2.597899 -5 -1.326016 -5 0 
C -5 1.326016 -4.473168 2.597899 -3.535534 3.535534 
C -2.597899 4.473168 -1.326016 5 0 5 
z
" style="stroke: #ff0000"/>
     </defs>
     <g>
      <use xlink:href="#mc82aaef195" x="324.030937" y="83.926688" style="fill: #ffffff; stroke: #ff0000"/>
     </g>
    </g>
    <g id="text_21">
     <!-- Obstacles -->
     <g transform="translate(342.030937 87.426688) scale(0.1 -0.1)">
      <defs>
       <path id="DejaVuSans-4f" d="M 2522 4238 
Q 1834 4238 1429 3725 
Q 1025 3213 1025 2328 
Q 1025 1447 1429 934 
Q 1834 422 2522 422 
Q 3209 422 3611 934 
Q 4013 1447 4013 2328 
Q 4013 3213 3611 3725 
Q 3209 4238 2522 4238 
z
M 2522 4750 
Q 3503 4750 4090 4092 
Q 4678 3434 4678 2328 
Q 4678 1225 4090 567 
Q 3503 -91 2522 -91 
Q 1538 -91 948 565 
Q 359 1222 359 2328 
Q 359 3434 948 4092 
Q 1538 4750 2522 4750 
z
" transform="scale(0.015625)"/>
       <path id="DejaVuSans-73" d="M 2834 3397 
L 2834 2853 
Q 2591 2978 2328 3040 
Q 2066 3103 1784 3103 
Q 1356 3103 1142 2972 
Q 928 2841 928 2578 
Q 928 2378 1081 2264 
Q 1234 2150 1697 2047 
L 1894 2003 
Q 2506 1872 2764 1633 
Q 3022 1394 3022 966 
Q 3022 478 2636 193 
Q 2250 -91 1575 -91 
Q 1294 -91 989 -36 
Q 684 19 347 128 
L 347 722 
Q 666 556 975 473 
Q 1284 391 1588 391 
Q 1994 391 2212 530 
Q 2431 669 2431 922 
Q 2431 1156 2273 1281 
Q 2116 1406 1581 1522 
L 1381 1569 
Q 847 1681 609 1914 
Q 372 2147 372 2553 
Q 372 3047 722 3315 
Q 1072 3584 1716 3584 
Q 2034 3584 2315 3537 
Q 2597 3491 2834 3397 
z
" transform="scale(0.015625)"/>
       <path id="DejaVuSans-63" d="M 3122 3366 
L 3122 2828 
Q 2878 2963 2633 3030 
Q 2388 3097 2138 3097 
Q 1578 3097 1268 2742 
Q 959 2388 959 1747 
Q 959 1106 1268 751 
Q 1578 397 2138 397 
Q 2388 397 2633 464 
Q 2878 531 3122 666 
L 3122 134 
Q 2881 22 2623 -34 
Q 2366 -91 2075 -91 
Q 1284 -91 818 406 
Q 353 903 353 1747 
Q 353 2603 823 3093 
Q 1294 3584 2113 3584 
Q 2378 3584 2631 3529 
Q 2884 3475 3122 3366 
z
" transform="scale(0.015625)"/>
       <path id="DejaVuSans-6c" d="M 603 4863 
L 1178 4863 
L 1178 0 
L 603 0 
L 603 4863 
z
" transform="scale(0.015625)"/>
       <path id="DejaVuSans-65" d="M 3597 1894 
L 3597 1613 
L 953 1613 
Q 991 1019 1311 708 
Q 1631 397 2203 397 
Q 2534 397 2845 478 
Q 3156 559 3463 722 
L 3463 178 
Q 3153 47 2828 -22 
Q 2503 -91 2169 -91 
Q 1331 -91 842 396 
Q 353 884 353 1716 
Q 353 2575 817 3079 
Q 1281 3584 2069 3584 
Q 2775 3584 3186 3129 
Q 3597 2675 3597 1894 
z
M 3022 2063 
Q 3016 2534 2758 2815 
Q 2500 3097 2075 3097 
Q 1594 3097 1305 2825 
Q 1016 2553 972 2059 
L 3022 2063 
z
" transform="scale(0.015625)"/>
      </defs>
      <use xlink:href="#DejaVuSans-4f"/>
      <use xlink:href="#DejaVuSans-62" transform="translate(78.710938 0)"/>
      <use xlink:href="#DejaVuSans-73" transform="translate(142.1875 0)"/>
      <use xlink:href="#DejaVuSans-74" transform="translate(194.287109 0)"/>
      <use xlink:href="#DejaVuSans-61" transform="translate(233.496094 0)"/>
      <use xlink:href="#DejaVuSans-63" transform="translate(294.775391 0)"/>
      <use xlink:href="#DejaVuSans-6c" transform="translate(349.755859 0)"/>
      <use xlink:href="#DejaVuSans-65" transform="translate(377.539062 0)"/>
      <use xlink:href="#DejaVuSans-73" transform="translate(439.0625 0)"/>
     </g>
    </g>
    <g id="line2d_22">
     <defs>
      <path id="m9c79816e3c" d="M 0 5 
C 1.326016 5 2.597899 4.473168 3.535534 3.535534 
C 4.473168 2.597899 5 1.326016 5 0 
C 5 -1.326016 4.473168 -2.597899 3.535534 -3.535534 
C 2.597899 -4.473168 1.326016 -5 0 -5 
C -1.326016 -5 -2.597899 -4.473168 -3.535534 -3.535534 
C -4.473168 -2.597899 -5 -1.326016 -5 0 
C -5 1.326016 -4.473168 2.597899 -3.535534 3.535534 
C -2.597899 4.473168 -1.326016 5 0 5 
z
" style="stroke: #0000ff"/>
     </defs>
     <g>
      <use xlink:href="#m9c79816e3c" x="324.030937" y="98.604813" style="fill: #ffffff; stroke: #0000ff"/>
     </g>
    </g>
    <g id="text_22">
     <!-- Goals -->
     <g transform="translate(342.030937 102.104813) scale(0.1 -0.1)">
      <defs>
       <path id="DejaVuSans-47" d="M 3809 666 
L 3809 1919 
L 2778 1919 
L 2778 2438 
L 4434 2438 
L 4434 434 
Q 4069 175 3628 42 
Q 3188 -91 2688 -91 
Q 1594 -91 976 548 
Q 359 1188 359 2328 
Q 359 3472 976 4111 
Q 1594 4750 2688 4750 
Q 3144 4750 3555 4637 
Q 3966 4525 4313 4306 
L 4313 3634 
Q 3963 3931 3569 4081 
Q 3175 4231 2741 4231 
Q 1884 4231 1454 3753 
Q 1025 3275 1025 2328 
Q 1025 1384 1454 906 
Q 1884 428 2741 428 
Q 3075 428 3337 486 
Q 3600 544 3809 666 
z
" transform="scale(0.015625)"/>
      </defs>
      <use xlink:href="#DejaVuSans-47"/>
      <use xlink:href="#DejaVuSans-6f" transform="translate(77.490234 0)"/>
      <use xlink:href="#DejaVuSans-61" transform="translate(138.671875 0)"/>
      <use xlink:href="#DejaVuSans-6c" transform="translate(199.951172 0)"/>
      <use xlink:href="#DejaVuSans-73" transform="translate(227.734375 0)"/>
     </g>
    </g>
   </g>
  </g>
 </g>
 <defs>
  <clipPath id="p7088e217dd">
   <rect x="57.6" y="41.472" width="357.12" height="266.112"/>
  </clipPath>
 </defs>
</svg>
